<mxfile host="app.diagrams.net" modified="2023-03-27T11:45:06.502Z" agent="5.0 (Windows NT 10.0; Win64; x64) AppleWebKit/537.36 (KHTML, like Gecko) Chrome/111.0.0.0 Safari/537.36" etag="riQukszZ_DODpmHDbsfD" version="20.8.5" type="github">
  <diagram id="C5RBs43oDa-KdzZeNtuy" name="Page-1">
    <mxGraphModel dx="2074" dy="1148" grid="1" gridSize="10" guides="1" tooltips="1" connect="1" arrows="1" fold="1" page="1" pageScale="1" pageWidth="827" pageHeight="1169" math="0" shadow="0">
      <root>
        <mxCell id="WIyWlLk6GJQsqaUBKTNV-0" />
        <mxCell id="WIyWlLk6GJQsqaUBKTNV-1" parent="WIyWlLk6GJQsqaUBKTNV-0" />
        <mxCell id="UFKldvnoBP6Q02X7NCzK-3" style="edgeStyle=orthogonalEdgeStyle;rounded=0;orthogonalLoop=1;jettySize=auto;html=1;exitX=0.5;exitY=1;exitDx=0;exitDy=0;entryX=0.5;entryY=0;entryDx=0;entryDy=0;" edge="1" parent="WIyWlLk6GJQsqaUBKTNV-1" source="WIyWlLk6GJQsqaUBKTNV-3" target="UFKldvnoBP6Q02X7NCzK-2">
          <mxGeometry relative="1" as="geometry" />
        </mxCell>
        <mxCell id="WIyWlLk6GJQsqaUBKTNV-3" value="Starta Server" style="rounded=1;whiteSpace=wrap;html=1;fontSize=12;glass=0;strokeWidth=1;shadow=0;" parent="WIyWlLk6GJQsqaUBKTNV-1" vertex="1">
          <mxGeometry x="354" y="110" width="120" height="50" as="geometry" />
        </mxCell>
        <mxCell id="UFKldvnoBP6Q02X7NCzK-1" style="edgeStyle=orthogonalEdgeStyle;rounded=0;orthogonalLoop=1;jettySize=auto;html=1;" edge="1" parent="WIyWlLk6GJQsqaUBKTNV-1" source="UFKldvnoBP6Q02X7NCzK-0" target="WIyWlLk6GJQsqaUBKTNV-3">
          <mxGeometry relative="1" as="geometry" />
        </mxCell>
        <mxCell id="UFKldvnoBP6Q02X7NCzK-0" value="Start" style="ellipse;whiteSpace=wrap;html=1;" vertex="1" parent="WIyWlLk6GJQsqaUBKTNV-1">
          <mxGeometry x="354" y="10" width="120" height="80" as="geometry" />
        </mxCell>
        <mxCell id="UFKldvnoBP6Q02X7NCzK-6" style="edgeStyle=orthogonalEdgeStyle;rounded=0;orthogonalLoop=1;jettySize=auto;html=1;exitX=0.5;exitY=1;exitDx=0;exitDy=0;entryX=0.5;entryY=0;entryDx=0;entryDy=0;" edge="1" parent="WIyWlLk6GJQsqaUBKTNV-1" source="UFKldvnoBP6Q02X7NCzK-2" target="UFKldvnoBP6Q02X7NCzK-5">
          <mxGeometry relative="1" as="geometry" />
        </mxCell>
        <mxCell id="UFKldvnoBP6Q02X7NCzK-2" value="Invänta koppling från klient." style="shape=parallelogram;perimeter=parallelogramPerimeter;whiteSpace=wrap;html=1;fixedSize=1;" vertex="1" parent="WIyWlLk6GJQsqaUBKTNV-1">
          <mxGeometry x="343.5" y="180" width="141" height="60" as="geometry" />
        </mxCell>
        <mxCell id="UFKldvnoBP6Q02X7NCzK-8" style="edgeStyle=orthogonalEdgeStyle;rounded=0;orthogonalLoop=1;jettySize=auto;html=1;entryX=0.5;entryY=0;entryDx=0;entryDy=0;" edge="1" parent="WIyWlLk6GJQsqaUBKTNV-1" source="UFKldvnoBP6Q02X7NCzK-5" target="UFKldvnoBP6Q02X7NCzK-7">
          <mxGeometry relative="1" as="geometry" />
        </mxCell>
        <mxCell id="UFKldvnoBP6Q02X7NCzK-5" value="Ta emot strängdata från Användaren." style="shape=parallelogram;perimeter=parallelogramPerimeter;whiteSpace=wrap;html=1;fixedSize=1;" vertex="1" parent="WIyWlLk6GJQsqaUBKTNV-1">
          <mxGeometry x="334" y="260" width="160" height="40" as="geometry" />
        </mxCell>
        <mxCell id="UFKldvnoBP6Q02X7NCzK-11" style="edgeStyle=orthogonalEdgeStyle;rounded=0;orthogonalLoop=1;jettySize=auto;html=1;exitX=0.5;exitY=1;exitDx=0;exitDy=0;entryX=0.5;entryY=0;entryDx=0;entryDy=0;" edge="1" parent="WIyWlLk6GJQsqaUBKTNV-1" source="UFKldvnoBP6Q02X7NCzK-7" target="UFKldvnoBP6Q02X7NCzK-9">
          <mxGeometry relative="1" as="geometry" />
        </mxCell>
        <mxCell id="UFKldvnoBP6Q02X7NCzK-7" value="Separera strängdata till två strängar." style="rounded=0;whiteSpace=wrap;html=1;" vertex="1" parent="WIyWlLk6GJQsqaUBKTNV-1">
          <mxGeometry x="354" y="330" width="120" height="60" as="geometry" />
        </mxCell>
        <mxCell id="UFKldvnoBP6Q02X7NCzK-19" style="edgeStyle=orthogonalEdgeStyle;rounded=0;orthogonalLoop=1;jettySize=auto;html=1;exitX=0.5;exitY=1;exitDx=0;exitDy=0;entryX=0.5;entryY=0;entryDx=0;entryDy=0;" edge="1" parent="WIyWlLk6GJQsqaUBKTNV-1" source="UFKldvnoBP6Q02X7NCzK-9" target="UFKldvnoBP6Q02X7NCzK-12">
          <mxGeometry relative="1" as="geometry" />
        </mxCell>
        <mxCell id="UFKldvnoBP6Q02X7NCzK-9" value="" style="rounded=0;whiteSpace=wrap;html=1;" vertex="1" parent="WIyWlLk6GJQsqaUBKTNV-1">
          <mxGeometry x="354" y="420" width="120" height="60" as="geometry" />
        </mxCell>
        <mxCell id="UFKldvnoBP6Q02X7NCzK-17" style="edgeStyle=orthogonalEdgeStyle;rounded=0;orthogonalLoop=1;jettySize=auto;html=1;entryX=0.5;entryY=0;entryDx=0;entryDy=0;" edge="1" parent="WIyWlLk6GJQsqaUBKTNV-1" source="UFKldvnoBP6Q02X7NCzK-12" target="UFKldvnoBP6Q02X7NCzK-13">
          <mxGeometry relative="1" as="geometry" />
        </mxCell>
        <mxCell id="UFKldvnoBP6Q02X7NCzK-36" value="" style="edgeStyle=orthogonalEdgeStyle;rounded=0;orthogonalLoop=1;jettySize=auto;html=1;" edge="1" parent="WIyWlLk6GJQsqaUBKTNV-1" source="UFKldvnoBP6Q02X7NCzK-12" target="UFKldvnoBP6Q02X7NCzK-35">
          <mxGeometry relative="1" as="geometry" />
        </mxCell>
        <mxCell id="UFKldvnoBP6Q02X7NCzK-12" value="" style="rhombus;whiteSpace=wrap;html=1;" vertex="1" parent="WIyWlLk6GJQsqaUBKTNV-1">
          <mxGeometry x="365" y="500" width="100" height="90" as="geometry" />
        </mxCell>
        <mxCell id="UFKldvnoBP6Q02X7NCzK-20" value="" style="edgeStyle=orthogonalEdgeStyle;rounded=0;orthogonalLoop=1;jettySize=auto;html=1;" edge="1" parent="WIyWlLk6GJQsqaUBKTNV-1" source="UFKldvnoBP6Q02X7NCzK-13" target="UFKldvnoBP6Q02X7NCzK-14">
          <mxGeometry relative="1" as="geometry" />
        </mxCell>
        <mxCell id="UFKldvnoBP6Q02X7NCzK-13" value="" style="rounded=0;whiteSpace=wrap;html=1;" vertex="1" parent="WIyWlLk6GJQsqaUBKTNV-1">
          <mxGeometry x="355" y="610" width="120" height="60" as="geometry" />
        </mxCell>
        <mxCell id="UFKldvnoBP6Q02X7NCzK-21" value="" style="edgeStyle=orthogonalEdgeStyle;rounded=0;orthogonalLoop=1;jettySize=auto;html=1;" edge="1" parent="WIyWlLk6GJQsqaUBKTNV-1" source="UFKldvnoBP6Q02X7NCzK-14" target="UFKldvnoBP6Q02X7NCzK-15">
          <mxGeometry relative="1" as="geometry" />
        </mxCell>
        <mxCell id="UFKldvnoBP6Q02X7NCzK-14" value="" style="rounded=0;whiteSpace=wrap;html=1;" vertex="1" parent="WIyWlLk6GJQsqaUBKTNV-1">
          <mxGeometry x="355" y="700" width="120" height="60" as="geometry" />
        </mxCell>
        <mxCell id="UFKldvnoBP6Q02X7NCzK-22" value="" style="edgeStyle=orthogonalEdgeStyle;rounded=0;orthogonalLoop=1;jettySize=auto;html=1;" edge="1" parent="WIyWlLk6GJQsqaUBKTNV-1" source="UFKldvnoBP6Q02X7NCzK-15" target="UFKldvnoBP6Q02X7NCzK-16">
          <mxGeometry relative="1" as="geometry" />
        </mxCell>
        <mxCell id="UFKldvnoBP6Q02X7NCzK-15" value="" style="rounded=0;whiteSpace=wrap;html=1;" vertex="1" parent="WIyWlLk6GJQsqaUBKTNV-1">
          <mxGeometry x="355" y="790" width="120" height="60" as="geometry" />
        </mxCell>
        <mxCell id="UFKldvnoBP6Q02X7NCzK-24" value="" style="edgeStyle=orthogonalEdgeStyle;rounded=0;orthogonalLoop=1;jettySize=auto;html=1;" edge="1" parent="WIyWlLk6GJQsqaUBKTNV-1" source="UFKldvnoBP6Q02X7NCzK-16" target="UFKldvnoBP6Q02X7NCzK-23">
          <mxGeometry relative="1" as="geometry" />
        </mxCell>
        <mxCell id="UFKldvnoBP6Q02X7NCzK-33" value="" style="edgeStyle=orthogonalEdgeStyle;rounded=0;orthogonalLoop=1;jettySize=auto;html=1;" edge="1" parent="WIyWlLk6GJQsqaUBKTNV-1" source="UFKldvnoBP6Q02X7NCzK-16" target="UFKldvnoBP6Q02X7NCzK-32">
          <mxGeometry relative="1" as="geometry" />
        </mxCell>
        <mxCell id="UFKldvnoBP6Q02X7NCzK-16" value="" style="rhombus;whiteSpace=wrap;html=1;" vertex="1" parent="WIyWlLk6GJQsqaUBKTNV-1">
          <mxGeometry x="359" y="880" width="110" height="90" as="geometry" />
        </mxCell>
        <mxCell id="UFKldvnoBP6Q02X7NCzK-26" value="" style="edgeStyle=orthogonalEdgeStyle;rounded=0;orthogonalLoop=1;jettySize=auto;html=1;" edge="1" parent="WIyWlLk6GJQsqaUBKTNV-1" source="UFKldvnoBP6Q02X7NCzK-23" target="UFKldvnoBP6Q02X7NCzK-25">
          <mxGeometry relative="1" as="geometry" />
        </mxCell>
        <mxCell id="UFKldvnoBP6Q02X7NCzK-23" value="" style="rounded=0;whiteSpace=wrap;html=1;" vertex="1" parent="WIyWlLk6GJQsqaUBKTNV-1">
          <mxGeometry x="354" y="1000" width="120" height="60" as="geometry" />
        </mxCell>
        <mxCell id="UFKldvnoBP6Q02X7NCzK-28" value="" style="edgeStyle=orthogonalEdgeStyle;rounded=0;orthogonalLoop=1;jettySize=auto;html=1;" edge="1" parent="WIyWlLk6GJQsqaUBKTNV-1" source="UFKldvnoBP6Q02X7NCzK-25" target="UFKldvnoBP6Q02X7NCzK-27">
          <mxGeometry relative="1" as="geometry" />
        </mxCell>
        <mxCell id="UFKldvnoBP6Q02X7NCzK-25" value="" style="rounded=0;whiteSpace=wrap;html=1;" vertex="1" parent="WIyWlLk6GJQsqaUBKTNV-1">
          <mxGeometry x="354" y="1080" width="120" height="60" as="geometry" />
        </mxCell>
        <mxCell id="UFKldvnoBP6Q02X7NCzK-30" style="edgeStyle=orthogonalEdgeStyle;rounded=0;orthogonalLoop=1;jettySize=auto;html=1;entryX=0;entryY=0.5;entryDx=0;entryDy=0;" edge="1" parent="WIyWlLk6GJQsqaUBKTNV-1" source="UFKldvnoBP6Q02X7NCzK-27" target="UFKldvnoBP6Q02X7NCzK-5">
          <mxGeometry relative="1" as="geometry">
            <mxPoint x="150" y="280" as="targetPoint" />
            <Array as="points">
              <mxPoint x="80" y="1110" />
              <mxPoint x="80" y="280" />
            </Array>
          </mxGeometry>
        </mxCell>
        <mxCell id="UFKldvnoBP6Q02X7NCzK-27" value="" style="whiteSpace=wrap;html=1;rounded=0;" vertex="1" parent="WIyWlLk6GJQsqaUBKTNV-1">
          <mxGeometry x="180" y="1080" width="120" height="60" as="geometry" />
        </mxCell>
        <mxCell id="UFKldvnoBP6Q02X7NCzK-34" style="edgeStyle=orthogonalEdgeStyle;rounded=0;orthogonalLoop=1;jettySize=auto;html=1;entryX=1;entryY=0.5;entryDx=0;entryDy=0;" edge="1" parent="WIyWlLk6GJQsqaUBKTNV-1" source="UFKldvnoBP6Q02X7NCzK-32" target="UFKldvnoBP6Q02X7NCzK-5">
          <mxGeometry relative="1" as="geometry">
            <Array as="points">
              <mxPoint x="800" y="930" />
              <mxPoint x="800" y="280" />
            </Array>
          </mxGeometry>
        </mxCell>
        <mxCell id="UFKldvnoBP6Q02X7NCzK-32" value="" style="whiteSpace=wrap;html=1;" vertex="1" parent="WIyWlLk6GJQsqaUBKTNV-1">
          <mxGeometry x="545" y="895" width="120" height="60" as="geometry" />
        </mxCell>
        <mxCell id="UFKldvnoBP6Q02X7NCzK-37" style="edgeStyle=orthogonalEdgeStyle;rounded=0;orthogonalLoop=1;jettySize=auto;html=1;entryX=1;entryY=0.5;entryDx=0;entryDy=0;" edge="1" parent="WIyWlLk6GJQsqaUBKTNV-1" source="UFKldvnoBP6Q02X7NCzK-35" target="UFKldvnoBP6Q02X7NCzK-5">
          <mxGeometry relative="1" as="geometry">
            <Array as="points">
              <mxPoint x="800" y="545" />
              <mxPoint x="800" y="280" />
            </Array>
          </mxGeometry>
        </mxCell>
        <mxCell id="UFKldvnoBP6Q02X7NCzK-35" value="" style="whiteSpace=wrap;html=1;" vertex="1" parent="WIyWlLk6GJQsqaUBKTNV-1">
          <mxGeometry x="545" y="515" width="120" height="60" as="geometry" />
        </mxCell>
      </root>
    </mxGraphModel>
  </diagram>
</mxfile>
